<svg width="21" height="24" viewBox="0 0 21 24" fill="none" xmlns="http://www.w3.org/2000/svg">
<path d="M20.1113 8.18242C19.9688 8.29043 17.4531 9.67537 17.4531 12.7549C17.4531 16.3168 20.6542 17.577 20.75 17.6082C20.7353 17.685 20.2415 19.3339 19.0622 21.0141C18.0108 22.4926 16.9126 23.9688 15.2421 23.9688C13.5715 23.9688 13.1416 23.0207 11.2131 23.0207C9.33371 23.0207 8.66549 24 7.13742 24C5.60935 24 4.54315 22.6319 3.31725 20.9517C1.89728 18.9787 0.75 15.9136 0.75 13.0045C0.75 8.33843 3.85527 5.86379 6.91141 5.86379C8.53528 5.86379 9.88893 6.90549 10.9085 6.90549C11.8789 6.90549 13.3922 5.80138 15.2396 5.80138C15.9398 5.80138 18.4554 5.86379 20.1113 8.18242ZM14.3626 3.82598C15.1266 2.94029 15.6671 1.71137 15.6671 0.482448C15.6671 0.312031 15.6523 0.139214 15.6204 0C14.3773 0.0456046 12.8984 0.808881 12.0066 1.81938C11.3064 2.59706 10.653 3.82598 10.653 5.07171C10.653 5.25893 10.6849 5.44614 10.6996 5.50615C10.7783 5.52055 10.906 5.53735 11.0337 5.53735C12.1491 5.53735 13.5519 4.80768 14.3626 3.82598Z" fill="black"/>
</svg>
